<svg width="3769" height="3769" viewBox="0 0 3769 3769" fill="none" xmlns="http://www.w3.org/2000/svg">
<g filter="url(#filter0_d_2_16)">
<path d="M141.423 2026.07C63.318 1947.97 63.318 1821.33 141.423 1743.23L1383.54 501.112L1505.29 622.864C1583.39 700.969 1583.39 827.602 1505.29 905.706L263.174 2147.82L141.423 2026.07Z" fill="#13293D"/>
<path d="M1532.48 3134.28C1454.37 3212.39 1327.74 3212.39 1249.63 3134.28L263.171 2147.82L526.343 1884.65L1654.23 3012.53L1532.48 3134.28Z" fill="#13293D"/>
<path d="M2518.94 1621.48L1391.06 2749.36L1654.23 3012.53L2640.69 2026.07C2718.8 1947.97 2718.8 1821.33 2640.69 1743.23L2518.94 1621.48Z" fill="#13293D"/>
</g>
<g filter="url(#filter1_d_2_16)">
<path d="M2638.25 753.6C2560.15 675.495 2433.51 675.495 2355.41 753.6L1113.29 1995.72L1235.04 2117.47C1313.15 2195.57 1439.78 2195.57 1517.89 2117.47L2760 875.351L2638.25 753.6Z" fill="#7CE2FF"/>
<path d="M3503.96 2146.63L2376.07 1018.75L2639.25 755.575L3625.71 1742.04C3703.81 1820.14 3703.81 1946.78 3625.71 2024.88L3503.96 2146.63Z" fill="#7CE2FF"/>
<path d="M3241.78 1884.46L2113.9 3012.35L2235.65 3134.1C2313.76 3212.2 2440.39 3212.2 2518.49 3134.1L3504.96 2147.64L3241.78 1884.46Z" fill="#7CE2FF"/>
</g>
<defs>
<filter id="filter0_d_2_16" x="42.8442" y="465.112" width="2696.43" height="2771.75" filterUnits="userSpaceOnUse" color-interpolation-filters="sRGB">
<feFlood flood-opacity="0" result="BackgroundImageFix"/>
<feColorMatrix in="SourceAlpha" type="matrix" values="0 0 0 0 0 0 0 0 0 0 0 0 0 0 0 0 0 0 127 0" result="hardAlpha"/>
<feOffset dy="4"/>
<feGaussianBlur stdDeviation="20"/>
<feComposite in2="hardAlpha" operator="out"/>
<feColorMatrix type="matrix" values="0 0 0 0 0 0 0 0 0 0 0 0 0 0 0 0 0 0 0.5 0"/>
<feBlend mode="normal" in2="BackgroundImageFix" result="effect1_dropShadow_2_16"/>
<feBlend mode="normal" in="SourceGraphic" in2="effect1_dropShadow_2_16" result="shape"/>
</filter>
<filter id="filter1_d_2_16" x="1073.29" y="659.021" width="2651" height="2577.66" filterUnits="userSpaceOnUse" color-interpolation-filters="sRGB">
<feFlood flood-opacity="0" result="BackgroundImageFix"/>
<feColorMatrix in="SourceAlpha" type="matrix" values="0 0 0 0 0 0 0 0 0 0 0 0 0 0 0 0 0 0 127 0" result="hardAlpha"/>
<feOffset dy="4"/>
<feGaussianBlur stdDeviation="20"/>
<feComposite in2="hardAlpha" operator="out"/>
<feColorMatrix type="matrix" values="0 0 0 0 0 0 0 0 0 0 0 0 0 0 0 0 0 0 0.8 0"/>
<feBlend mode="normal" in2="BackgroundImageFix" result="effect1_dropShadow_2_16"/>
<feBlend mode="normal" in="SourceGraphic" in2="effect1_dropShadow_2_16" result="shape"/>
</filter>
</defs>
</svg>
