<svg width="57" height="60" viewBox="0 0 57 60" fill="none" xmlns="http://www.w3.org/2000/svg">
<path d="M28.6315 43.9586C28.6315 64.4038 31.6911 64.4038 16.3562 49.0696C10.8508 43.5644 16.3555 54.181 16.3555 32.7131C16.3555 11.2451 14.3036 16.3565 10.2305 3.06738C25.5647 14.3125 28.6315 30.669 28.6315 43.9586Z" fill="#247BA0"/>
<path d="M0 16.3564L10.2228 23.5124L16.3565 30.6684L18.4011 51.114L9.20053 42.9358L6.13369 40.8912V28.6238L0 16.3564Z" fill="#247BA0"/>
<path d="M37.8239 9.20053L44.9799 0L40.8908 12.2674L38.8462 18.4011V25.557L33.7348 34.7576L31.6903 35.7799L30.668 20.4456L37.8239 9.20053Z" fill="#247BA0"/>
<path d="M41.9154 27.6015L48.0491 21.4679L56.2273 16.3564L55.205 18.401L50.0936 23.5124L47.0268 30.6684L46.0045 36.8021L44.9822 42.9358L43.9599 43.958L32.7148 55.2031V48.0472L34.7594 40.8912L41.9154 27.6015Z" fill="#247BA0"/>
</svg>
