<svg width="73" height="60" viewBox="0 0 73 60" fill="none" xmlns="http://www.w3.org/2000/svg">
<path d="M28.6658 0H43.533L47.7808 4.77876V6.90265L43.533 11.1504L36.6303 18.5841L24.418 6.90265V4.77876L28.6658 0Z" fill="#5A2E98"/>
<path d="M11.6814 14.3362H23.3628L24.9557 16.991L27.0796 19.6459L27.6106 27.6105L24.4248 37.699L13.8053 30.2654L18.0531 24.9556H7.43362L0 13.2742V10.0884L11.6814 14.3362Z" fill="#5A2E98"/>
<path d="M60.5295 14.3362H48.8481L47.2552 16.991L45.1313 19.6459L44.6003 27.6105L47.7862 37.699L58.4056 30.2654L54.1579 24.9556H64.7773L72.2109 13.2742V10.0884L60.5295 14.3362Z" fill="#5A2E98"/>
<path d="M31.8563 20.7083H33.9802L36.1041 22.8321L38.228 20.7083H40.3519V35.5755L41.4138 41.9472L43.5377 49.3808L46.7236 54.6905L42.4758 60.0003H29.7324L26.0156 54.6905L29.2015 49.3808L30.7944 41.9472L31.3254 35.5755L31.8563 20.7083Z" fill="#5A2E98"/>
</svg>
