<svg width="37" height="38" viewBox="0 0 37 38" fill="none" xmlns="http://www.w3.org/2000/svg">
<path d="M18.8226 27.4313C18.8226 40.1896 20.7318 40.1896 11.1624 30.6206C7.72694 27.1853 11.162 33.8103 11.162 20.4137C11.162 7.0172 9.8816 10.2069 7.33984 1.91406C16.9088 8.9313 18.8226 19.1382 18.8226 27.4313Z" fill="#D9D9D9"/>
<path d="M0.957031 10.2068L7.33634 14.6723L11.1639 19.1378L12.4398 31.8964L6.69841 26.793L4.78462 25.5171V17.862L0.957031 10.2068Z" fill="#D9D9D9"/>
<path d="M24.5593 5.74138L29.0248 0L26.4731 7.65517L25.1972 11.4828V15.9483L22.0075 21.6897L20.7317 22.3276L20.0938 12.7586L24.5593 5.74138Z" fill="#D9D9D9"/>
<path d="M27.1125 17.224L30.9401 13.3964L36.0435 10.2068L35.4056 11.4826L32.2159 14.6723L30.3021 19.1378L29.6642 22.9654L29.0263 26.793L28.3883 27.4309L21.3711 34.4482V29.9826L22.647 25.5171L27.1125 17.224Z" fill="#D9D9D9"/>
</svg>
