<svg width="39" height="32" viewBox="0 0 39 32" fill="none" xmlns="http://www.w3.org/2000/svg">
<path d="M15.8921 0H23.7725L26.024 2.53296V3.65872L23.7725 5.91024L20.1137 9.85041L13.6406 3.65872V2.53296L15.8921 0Z" fill="#D9D9D9"/>
<path d="M6.8909 7.59893H13.0826L13.9269 9.00613L15.0527 10.4133L15.3341 14.6349L13.6455 19.9823L8.01666 16.0421L10.2682 13.2277H4.63938L0.699219 7.03605V5.34741L6.8909 7.59893Z" fill="#D9D9D9"/>
<path d="M32.7849 7.59893H26.5932L25.7489 9.00613L24.6231 10.4133L24.3417 14.6349L26.0303 19.9823L31.6591 16.0421L29.4076 13.2277H35.0364L38.9766 7.03605V5.34741L32.7849 7.59893Z" fill="#D9D9D9"/>
<path d="M17.5841 10.9763H18.7099L19.8356 12.1021L20.9614 10.9763H22.0872V18.8566L22.65 22.2339L23.7758 26.1741L25.4644 28.9885L23.2129 31.8029H16.4584L14.4883 28.9885L16.1769 26.1741L17.0212 22.2339L17.3027 18.8566L17.5841 10.9763Z" fill="#D9D9D9"/>
</svg>
