<svg width="30" height="30" viewBox="0 0 30 30" fill="none" xmlns="http://www.w3.org/2000/svg">
<path d="M11.55 30L10.8 25.275C10.325 25.1 9.825 24.8625 9.3 24.5625C8.775 24.2625 8.3125 23.95 7.9125 23.625L3.4875 25.65L0 19.5L4.05 16.5375C4 16.3125 3.96875 16.0562 3.95625 15.7687C3.94375 15.4812 3.9375 15.225 3.9375 15C3.9375 14.775 3.94375 14.5188 3.95625 14.2313C3.96875 13.9438 4 13.6875 4.05 13.4625L0 10.5L3.4875 4.35L7.9125 6.375C8.3125 6.05 8.775 5.7375 9.3 5.4375C9.825 5.1375 10.325 4.9125 10.8 4.7625L11.55 0H18.45L19.2 4.725C19.675 4.9 20.1812 5.13125 20.7188 5.41875C21.2563 5.70625 21.7125 6.025 22.0875 6.375L26.5125 4.35L30 10.5L25.95 13.3875C26 13.6375 26.0312 13.9062 26.0437 14.1937C26.0562 14.4812 26.0625 14.75 26.0625 15C26.0625 15.25 26.0562 15.5125 26.0437 15.7875C26.0312 16.0625 26 16.325 25.95 16.575L30 19.5L26.5125 25.65L22.0875 23.625C21.6875 23.95 21.2313 24.2688 20.7188 24.5813C20.2062 24.8938 19.7 25.125 19.2 25.275L18.45 30H11.55ZM15 19.875C16.35 19.875 17.5 19.4 18.45 18.45C19.4 17.5 19.875 16.35 19.875 15C19.875 13.65 19.4 12.5 18.45 11.55C17.5 10.6 16.35 10.125 15 10.125C13.65 10.125 12.5 10.6 11.55 11.55C10.6 12.5 10.125 13.65 10.125 15C10.125 16.35 10.6 17.5 11.55 18.45C12.5 19.4 13.65 19.875 15 19.875Z" fill="#F5F5F5"/>
</svg>
