<svg width="30" height="30" viewBox="0 0 30 30" fill="none" xmlns="http://www.w3.org/2000/svg">
<path d="M0 30V27.5H3.83333V0H20.0833V1.875H26.2083V27.5H30V30H23.7083V4.375H20.0833V30H0ZM13.7917 16.6667C14.2639 16.6667 14.6597 16.5069 14.9792 16.1875C15.2986 15.8681 15.4583 15.4722 15.4583 15C15.4583 14.5278 15.2986 14.1319 14.9792 13.8125C14.6597 13.4931 14.2639 13.3333 13.7917 13.3333C13.3194 13.3333 12.9236 13.4931 12.6042 13.8125C12.2847 14.1319 12.125 14.5278 12.125 15C12.125 15.4722 12.2847 15.8681 12.6042 16.1875C12.9236 16.5069 13.3194 16.6667 13.7917 16.6667Z" fill="#F5F5F5"/>
</svg>
