<svg width="30" height="30" viewBox="0 0 30 30" fill="none" xmlns="http://www.w3.org/2000/svg">
<path d="M15 30C10.8333 30 7.29167 28.5417 4.375 25.625C1.45833 22.7083 0 19.1667 0 15C0 10.8333 1.45833 7.29167 4.375 4.375C7.29167 1.45833 10.8333 0 15 0C15.2222 0 15.4583 0.00694452 15.7083 0.0208334C15.9583 0.0347223 16.2778 0.0555555 16.6667 0.0833333C15.6667 0.972222 14.8889 2.06944 14.3333 3.375C13.7778 4.68056 13.5 6.05556 13.5 7.5C13.5 10 14.375 12.125 16.125 13.875C17.875 15.625 20 16.5 22.5 16.5C23.9444 16.5 25.3194 16.2431 26.625 15.7292C27.9306 15.2153 29.0278 14.5 29.9167 13.5833C29.9444 13.9167 29.9653 14.1875 29.9792 14.3958C29.9931 14.6042 30 14.8056 30 15C30 19.1667 28.5417 22.7083 25.625 25.625C22.7083 28.5417 19.1667 30 15 30ZM15 27.5C18.0278 27.5 20.6667 26.5625 22.9167 24.6875C25.1667 22.8125 26.5694 20.6111 27.125 18.0833C26.4306 18.3889 25.6875 18.6181 24.8958 18.7708C24.1042 18.9236 23.3056 19 22.5 19C19.3056 19 16.5903 17.8819 14.3542 15.6458C12.1181 13.4097 11 10.6944 11 7.5C11 6.83333 11.0694 6.11806 11.2083 5.35417C11.3472 4.59028 11.5972 3.72222 11.9583 2.75C9.23611 3.5 6.97917 5.02083 5.1875 7.3125C3.39583 9.60417 2.5 12.1667 2.5 15C2.5 18.4722 3.71528 21.4236 6.14583 23.8542C8.57639 26.2847 11.5278 27.5 15 27.5Z" fill="#F5F5F5"/>
</svg>
