<svg width="30" height="30" viewBox="0 0 30 30" fill="none" xmlns="http://www.w3.org/2000/svg">
<path d="M15 14.0625C12.9375 14.0625 11.25 13.4062 9.9375 12.0938C8.625 10.7812 7.96875 9.09375 7.96875 7.03125C7.96875 4.96875 8.625 3.28125 9.9375 1.96875C11.25 0.65625 12.9375 0 15 0C17.0625 0 18.75 0.65625 20.0625 1.96875C21.375 3.28125 22.0312 4.96875 22.0312 7.03125C22.0312 9.09375 21.375 10.7812 20.0625 12.0938C18.75 13.4062 17.0625 14.0625 15 14.0625ZM0 29.1094V24.7031C0 23.5156 0.296875 22.5 0.890625 21.6562C1.48437 20.8125 2.25 20.1719 3.1875 19.7344C5.28125 18.7969 7.28906 18.0938 9.21094 17.625C11.1328 17.1562 13.0625 16.9219 15 16.9219C16.9375 16.9219 18.8594 17.1641 20.7656 17.6484C22.6719 18.1328 24.6719 18.8281 26.7656 19.7344C27.7344 20.1719 28.5156 20.8125 29.1094 21.6562C29.7031 22.5 30 23.5156 30 24.7031V29.1094H0Z" fill="#F5F5F5"/>
</svg>
